<svg width="292" height="249" viewBox="0 0 292 249" fill="none" xmlns="http://www.w3.org/2000/svg">
<path d="M86.4551 10L133.381 54.555L86.4551 99.1109H180.508L227.073 54.555L180.508 10H86.4551Z" stroke="white" stroke-width="20" stroke-linecap="square"/>
<path d="M222.21 144.525C216.426 144.472 211.262 145.537 206.718 147.72C202.225 149.851 198.532 152.993 195.64 157.147C192.8 161.247 190.941 166.227 190.063 172.085C189.185 177.89 189.546 183.109 191.147 187.742C192.8 192.323 195.666 195.944 199.746 198.607C203.877 201.27 209.171 202.601 215.626 202.601C219.241 202.601 222.701 202.095 226.006 201.083C229.363 200.018 232.384 198.527 235.069 196.61L231.351 185.026C228.924 186.784 226.574 188.035 224.302 188.781C222.081 189.473 219.835 189.82 217.563 189.82C214.258 189.82 211.572 189.127 209.506 187.742C207.492 186.358 206.098 184.387 205.323 181.831C204.549 179.221 204.419 176.159 204.936 172.644C205.71 167.692 207.57 163.91 210.513 161.301C213.509 158.638 217.227 157.307 221.668 157.307C224.199 157.307 226.419 157.626 228.33 158.265C230.241 158.851 232.229 159.889 234.295 161.381L239.02 149.717C237.109 148.173 234.708 146.921 231.816 145.963C228.976 145.004 225.774 144.525 222.21 144.525ZM8.67609 145.404L0 201.722H22.6197C32.0186 201.722 39.5843 199.486 45.3166 195.012C51.049 190.539 54.6124 183.855 56.0067 174.961C56.9363 168.943 56.5747 163.751 54.9221 159.384C53.3212 154.963 50.3776 151.528 46.0912 149.078C41.8565 146.628 36.2791 145.404 29.359 145.404H8.67609ZM69.1757 145.404L60.4996 201.722H74.8305L83.5066 145.404H69.1757ZM93.577 145.404L84.9009 201.722H99.2317L102.485 180.713H106.358C107.753 180.713 109.018 180.926 110.154 181.352C111.29 181.778 112.039 182.577 112.401 183.748L118.83 201.722H133.703L127.739 185.666C126.861 183.429 125.647 181.671 124.098 180.393C123.625 179.973 123.11 179.627 122.561 179.34C123.467 179.074 124.343 178.763 125.182 178.396C128.229 177.012 130.708 175.067 132.619 172.564C134.53 170.061 135.743 167.106 136.26 163.697C137.137 157.892 136.053 153.392 133.006 150.197C130.011 147.001 125.027 145.404 118.056 145.404H93.577ZM148.809 145.404L140.133 201.722H179.33L181.034 190.379H155.548L157.33 178.796H181.034L182.738 167.452H159.112L160.738 156.667H186.224L188.006 145.404H148.809ZM244.514 145.404L242.655 157.307H259.233L252.416 201.722H266.747L273.564 157.307H290.141L292 145.404H244.514ZM106.126 156.667H115.189C117.926 156.667 119.915 157.253 121.154 158.425C122.445 159.543 122.91 161.301 122.548 163.697C122.239 165.827 121.335 167.452 119.837 168.57C118.34 169.689 116.222 170.248 113.485 170.248H104.035L106.126 156.667ZM21.0702 157.307H27.7323C33.413 157.307 37.4152 158.664 39.7391 161.381C42.0631 164.097 42.7862 168.464 41.9083 174.482C41.082 179.541 39.1194 183.349 36.0208 185.905C32.9222 188.462 28.5844 189.74 23.007 189.74H16.19L21.0702 157.307Z" fill="white"/>
<path d="M126.898 216.819C124.562 216.819 122.509 217.196 120.736 217.951C118.964 218.676 117.529 219.706 116.431 221.041C115.334 222.346 114.659 223.884 114.406 225.654C114.04 228.062 114.462 230.035 115.672 231.573C116.91 233.111 118.879 234.083 121.58 234.489L125.716 235.185C127.545 235.446 128.782 235.969 129.43 236.752C130.077 237.506 130.302 238.522 130.105 239.798C129.908 241.162 129.191 242.279 127.953 243.149C126.715 244.02 124.928 244.455 122.593 244.455C120.539 244.455 118.739 244.208 117.191 243.715C115.672 243.193 114.237 242.496 112.887 241.626L111.241 245.195C112.507 246.094 114.082 246.834 115.967 247.414C117.852 247.995 119.962 248.285 122.298 248.285C124.605 248.285 126.616 247.922 128.332 247.197C130.049 246.471 131.441 245.471 132.51 244.194C133.58 242.917 134.241 241.467 134.494 239.842C134.86 237.434 134.438 235.519 133.228 234.097C132.046 232.646 130.091 231.718 127.362 231.312L123.142 230.659C121.313 230.369 120.061 229.803 119.386 228.962C118.71 228.12 118.485 227.032 118.711 225.698C118.964 224.131 119.765 222.898 121.116 221.998C122.466 221.099 124.239 220.649 126.433 220.649C128.234 220.649 129.81 220.896 131.16 221.389C132.539 221.882 133.776 222.564 134.874 223.435L136.477 219.909C135.436 218.981 134.086 218.241 132.426 217.69C130.766 217.109 128.923 216.819 126.898 216.819ZM244.092 216.819C241.757 216.819 239.703 217.196 237.93 217.951C236.158 218.676 234.723 219.706 233.626 221.041C232.529 222.346 231.854 223.884 231.6 225.654C231.235 228.062 231.656 230.035 232.866 231.573C234.104 233.111 236.074 234.083 238.774 234.489L242.91 235.185C244.739 235.446 245.977 235.969 246.624 236.752C247.271 237.506 247.496 238.522 247.299 239.798C247.102 241.162 246.385 242.279 245.147 243.149C243.909 244.02 242.123 244.455 239.787 244.455C237.734 244.455 235.933 244.208 234.386 243.715C232.866 243.193 231.431 242.496 230.081 241.626L228.435 245.195C229.701 246.094 231.277 246.834 233.162 247.414C235.047 247.995 237.157 248.285 239.492 248.285C241.799 248.285 243.811 247.922 245.527 247.197C247.243 246.471 248.636 245.471 249.705 244.194C250.774 242.917 251.435 241.467 251.688 239.842C252.054 237.434 251.632 235.519 250.422 234.097C249.24 232.646 247.285 231.718 244.556 231.312L240.336 230.659C238.507 230.369 237.255 229.803 236.58 228.962C235.905 228.12 235.68 227.032 235.905 225.698C236.158 224.131 236.96 222.898 238.31 221.998C239.661 221.099 241.433 220.649 243.628 220.649C245.428 220.649 247.004 220.896 248.354 221.389C249.733 221.882 250.971 222.564 252.068 223.435L253.672 219.909C252.631 218.981 251.28 218.241 249.62 217.69C247.96 217.109 246.118 216.819 244.092 216.819ZM25.8241 217.211L21.0977 247.893H25.1069L28.3766 226.524L34.4755 247.893H37.1342L49.7161 226.62L46.461 247.893H50.428L55.1545 217.211H51.3563L36.6297 242.372L29.6647 217.211H25.8241ZM62.2443 217.211L57.5178 247.893H61.9068L66.6335 217.211H62.2443ZM73.639 217.211L68.9123 247.893H73.0058L76.6435 224.217L90.2663 247.893H93.6002L98.3269 217.211H94.2334L90.596 240.884L77.015 217.211H73.639ZM105.29 217.211L100.564 247.893H104.953L109.679 217.211H105.29ZM139.727 217.211L139.136 220.997H149.307L145.171 247.893H149.56L153.696 220.997H163.866L164.457 217.211H139.727ZM168.551 217.211L163.824 247.893H168.213L170.197 235.011H175.598C176.893 235.011 177.948 235.185 178.764 235.533C179.579 235.881 180.156 236.65 180.494 237.84L183.575 247.893H188.175L185.052 237.883C184.63 236.578 184.011 235.62 183.195 235.011C182.886 234.761 182.547 234.561 182.182 234.409C182.859 234.255 183.507 234.051 184.123 233.792C185.642 233.125 186.88 232.182 187.837 230.964C188.822 229.716 189.44 228.222 189.694 226.481C190.172 223.551 189.638 221.273 188.09 219.648C186.543 218.023 184.081 217.211 180.705 217.211H168.551ZM197.965 217.211L193.239 247.893H197.628L202.354 217.211H197.965ZM209.36 217.211L204.633 247.893H224.13L224.679 244.237H209.444L211.006 234.141H225.312L225.861 230.485H211.555L213.031 220.823H228.309L228.857 217.211H209.36ZM172.349 220.823H179.861C181.943 220.823 183.448 221.288 184.376 222.216C185.333 223.145 185.685 224.523 185.432 226.351C185.178 228.004 184.461 229.295 183.279 230.224C182.126 231.123 180.55 231.573 178.553 231.573H170.703L172.349 220.823Z" fill="white"/>
</svg>
