<svg width="409" height="384" viewBox="0 0 409 384" fill="none" xmlns="http://www.w3.org/2000/svg">
<path d="M407.229 1H1.05823C1.02609 1 1 1.02606 1 1.05821V382.942C1 382.974 1.02609 383 1.05823 383H407.229C407.261 383 407.287 382.974 407.287 382.942V1.05821C407.287 1.02606 407.261 1 407.229 1Z" fill="#1A1A1A" stroke="#1A1A1A" stroke-width="1.6" stroke-linejoin="bevel"/>
<path d="M150.924 87.2725L197.445 130.104L150.924 172.937H244.165L290.329 130.104L244.165 87.2725H150.924Z" stroke="white" stroke-width="18" stroke-linecap="square"/>
<path d="M285.506 216.591C279.772 216.54 274.652 217.564 270.147 219.663C265.693 221.711 262.032 224.731 259.165 228.725C256.349 232.667 254.506 237.454 253.636 243.086C252.765 248.666 253.124 253.683 254.711 258.138C256.349 262.541 259.19 266.022 263.235 268.582C267.331 271.142 272.578 272.422 278.978 272.422C282.562 272.422 285.992 271.935 289.269 270.962C292.597 269.939 295.592 268.505 298.254 266.662L294.568 255.527C292.162 257.216 289.832 258.419 287.579 259.136C285.378 259.801 283.151 260.134 280.898 260.134C277.622 260.134 274.959 259.469 272.911 258.138C270.915 256.806 269.532 254.912 268.764 252.455C267.997 249.946 267.868 247.002 268.38 243.623C269.148 238.862 270.991 235.227 273.91 232.718C276.879 230.159 280.565 228.879 284.968 228.879C287.477 228.879 289.678 229.186 291.573 229.8C293.467 230.363 295.438 231.362 297.486 232.795L302.17 221.583C300.276 220.098 297.895 218.895 295.028 217.973C292.213 217.052 289.038 216.591 285.506 216.591ZM73.8141 217.436L65.2129 271.577H87.6373C96.9552 271.577 104.456 269.427 110.138 265.126C115.821 260.825 119.354 254.4 120.736 245.85C121.658 240.065 121.299 235.073 119.661 230.875C118.074 226.626 115.156 223.323 110.906 220.968C106.708 218.613 101.179 217.436 94.3186 217.436H73.8141ZM133.792 217.436L125.19 271.577H139.398L147.999 217.436H133.792ZM157.982 217.436L149.381 271.577H163.588L166.814 251.38H170.653C172.036 251.38 173.29 251.585 174.417 251.994C175.543 252.404 176.285 253.171 176.644 254.298L183.018 271.577H197.762L191.849 256.141C190.979 253.991 189.776 252.301 188.24 251.072C187.772 250.669 187.261 250.336 186.716 250.06C187.614 249.804 188.483 249.505 189.315 249.153C192.336 247.822 194.793 245.953 196.687 243.546C198.582 241.14 199.785 238.299 200.297 235.022C201.167 229.442 200.092 225.115 197.071 222.044C194.102 218.972 189.161 217.436 182.25 217.436H157.982ZM212.738 217.436L204.136 271.577H242.995L244.685 260.672H219.419L221.185 249.537H244.685L246.374 238.631H222.952L224.564 228.264H249.83L251.596 217.436H212.738ZM307.617 217.436L305.774 228.879H322.209L315.45 271.577H329.658L336.416 228.879H352.85L354.693 217.436H307.617ZM170.423 228.264H179.408C182.122 228.264 184.093 228.827 185.322 229.954C186.601 231.029 187.062 232.718 186.704 235.022C186.397 237.07 185.501 238.631 184.016 239.707C182.531 240.782 180.432 241.319 177.719 241.319H168.35L170.423 228.264ZM86.1012 228.879H92.7059C98.3376 228.879 102.305 230.184 104.609 232.795C106.913 235.406 107.63 239.604 106.76 245.39C105.94 250.253 103.995 253.914 100.923 256.371C97.851 258.829 93.5505 260.058 88.0212 260.058H81.2632L86.1012 228.879Z" fill="white"/>
<path d="M191.014 286.093C188.699 286.093 186.663 286.456 184.906 287.181C183.148 287.878 181.726 288.868 180.638 290.151C179.55 291.407 178.881 292.885 178.63 294.586C178.267 296.901 178.686 298.798 179.885 300.276C181.112 301.754 183.065 302.689 185.742 303.079L189.842 303.749C191.655 304 192.883 304.502 193.524 305.255C194.166 305.98 194.389 306.956 194.194 308.184C193.998 309.495 193.287 310.568 192.06 311.405C190.833 312.242 189.061 312.66 186.746 312.66C184.71 312.66 182.925 312.423 181.391 311.949C179.885 311.447 178.463 310.777 177.124 309.941L175.492 313.371C176.747 314.236 178.309 314.947 180.178 315.505C182.047 316.063 184.139 316.342 186.454 316.342C188.741 316.342 190.735 315.993 192.436 315.296C194.138 314.599 195.518 313.637 196.578 312.409C197.638 311.182 198.294 309.787 198.545 308.225C198.907 305.91 198.489 304.069 197.289 302.703C196.118 301.308 194.18 300.416 191.474 300.025L187.29 299.398C185.477 299.119 184.236 298.575 183.567 297.766C182.897 296.957 182.674 295.911 182.897 294.628C183.148 293.122 183.943 291.937 185.282 291.072C186.621 290.207 188.378 289.775 190.554 289.775C192.339 289.775 193.901 290.012 195.24 290.486C196.606 290.961 197.833 291.616 198.921 292.453L200.511 289.064C199.479 288.171 198.14 287.46 196.494 286.93C194.849 286.372 193.022 286.093 191.014 286.093ZM307.197 286.093C304.882 286.093 302.846 286.456 301.089 287.181C299.331 287.878 297.909 288.868 296.821 290.151C295.733 291.407 295.064 292.885 294.813 294.586C294.451 296.901 294.869 298.798 296.068 300.276C297.295 301.754 299.248 302.689 301.925 303.079L306.026 303.749C307.839 304 309.066 304.502 309.707 305.255C310.349 305.98 310.572 306.956 310.377 308.184C310.181 309.495 309.47 310.568 308.243 311.405C307.016 312.242 305.245 312.66 302.93 312.66C300.893 312.66 299.108 312.423 297.574 311.949C296.068 311.447 294.646 310.777 293.307 309.941L291.675 313.371C292.93 314.236 294.492 314.947 296.361 315.505C298.23 316.063 300.322 316.342 302.637 316.342C304.924 316.342 306.918 315.993 308.619 315.296C310.321 314.599 311.702 313.637 312.761 312.409C313.821 311.182 314.477 309.787 314.728 308.225C315.09 305.91 314.672 304.069 313.472 302.703C312.301 301.308 310.363 300.416 307.657 300.025L303.473 299.398C301.66 299.119 300.419 298.575 299.75 297.766C299.08 296.957 298.857 295.911 299.08 294.628C299.331 293.122 300.127 291.937 301.465 291.072C302.804 290.207 304.561 289.775 306.737 289.775C308.522 289.775 310.084 290.012 311.423 290.486C312.789 290.961 314.016 291.616 315.104 292.453L316.694 289.064C315.662 288.171 314.323 287.46 312.677 286.93C311.032 286.372 309.205 286.093 307.197 286.093ZM90.8126 286.47L86.127 315.965H90.1015L93.3431 295.423L99.3893 315.965H102.025L114.498 295.515L111.271 315.965H115.204L119.89 286.47H116.124L101.525 310.657L94.6201 286.47H90.8126ZM126.919 286.47L122.233 315.965H126.584L131.27 286.47H126.919ZM138.215 286.47L133.529 315.965H137.587L141.193 293.205L154.699 315.965H158.004L162.69 286.47H158.632L155.026 309.227L141.562 286.47H138.215ZM169.593 286.47L164.907 315.965H169.258L173.944 286.47H169.593ZM203.732 286.47L203.147 290.11H213.23L209.13 315.965H213.481L217.581 290.11H227.664L228.249 286.47H203.732ZM232.308 286.47L227.622 315.965H231.973L233.939 303.582H239.294C240.577 303.582 241.623 303.749 242.432 304.083C243.241 304.418 243.813 305.157 244.148 306.301L247.202 315.965H251.762L248.666 306.343C248.248 305.088 247.634 304.167 246.825 303.582C246.519 303.341 246.183 303.149 245.821 303.003C246.492 302.855 247.135 302.659 247.746 302.41C249.252 301.768 250.479 300.862 251.428 299.691C252.404 298.491 253.017 297.055 253.268 295.381C253.742 292.564 253.213 290.375 251.678 288.813C250.144 287.251 247.704 286.47 244.357 286.47H232.308ZM261.468 286.47L256.783 315.965H261.134L265.819 286.47H261.468ZM272.764 286.47L268.079 315.965H287.408L287.952 312.451H272.848L274.396 302.745H288.579L289.123 299.23H274.94L276.404 289.942H291.55L292.094 286.47H272.764ZM236.073 289.942H243.52C245.584 289.942 247.076 290.389 247.997 291.281C248.945 292.174 249.294 293.499 249.043 295.256C248.792 296.846 248.08 298.087 246.909 298.979C245.765 299.844 244.203 300.276 242.223 300.276H234.441L236.073 289.942Z" fill="white"/>
</svg>
